<svg width="895" height="694" viewBox="0 0 895 694" fill="none" xmlns="http://www.w3.org/2000/svg">
<path d="M445.418 99.4638C441.095 106.5 441.095 107.459 445.578 111.617L449.26 115.135L452.943 111.297C456.945 107.139 456.625 104.101 451.662 97.7048L448.78 94.0269L445.418 99.4638Z" fill="black"/>
<path d="M251.691 115.933C239.843 130.965 236.16 140.879 236.16 157.669C236.16 170.622 236.64 173.02 240.963 181.495C245.927 191.25 251.21 195.727 249.129 188.531C248.649 186.453 247.688 179.576 247.047 173.5C246.087 163.266 246.247 162.466 248.649 164.385C252.651 167.743 254.572 165.185 254.572 156.55C254.572 148.554 255.693 147.275 259.056 150.633C260.336 151.912 261.297 151.273 262.578 147.755C263.539 145.196 265.14 142.638 266.26 141.998C267.541 141.199 267.381 137.521 265.3 127.606C263.859 120.251 262.578 112.735 262.578 110.656C262.578 104.9 258.895 106.659 251.691 115.933Z" fill="black"/>
<path d="M420.602 108.098C420.282 108.418 423.484 112.256 427.807 116.574C433.25 122.01 435.492 125.528 435.492 128.567C435.492 132.884 435.332 132.884 428.127 131.765C419.321 130.486 417.88 131.925 417.88 141.839C417.88 149.355 414.678 152.393 408.594 150.794C403.47 149.515 404.271 152.873 409.875 157.03C412.597 158.949 414.678 160.868 414.678 161.348C414.678 161.987 410.195 163.906 404.591 165.985C380.095 174.78 355.758 194.289 340.708 217.156L332.703 229.468L333.503 221.793C334.144 215.716 335.745 212.198 341.669 204.683C345.672 199.566 349.034 194.768 349.034 194.129C349.034 193.489 347.913 191.73 346.472 190.131C344.231 187.573 345.031 186.933 358.16 180.537C374.651 172.381 378.494 167.424 373.851 160.388C370.648 155.591 372.41 153.512 379.935 153.512C386.179 153.512 390.502 156.071 392.423 161.188C394.024 165.345 394.184 165.345 396.426 162.467C402.35 154.312 397.066 141.039 386.019 136.402C382.817 134.963 378.654 132.245 376.732 130.166C374.811 128.087 371.609 126.328 369.528 126.328C364.564 126.488 354.317 131.605 347.273 137.681C342.309 141.839 340.868 142.319 338.147 140.88C333.023 138.161 330.141 140.4 326.459 149.994C321.816 162.147 320.695 190.771 323.897 223.232C326.139 246.579 325.978 255.853 323.417 255.853C322.776 255.853 321.816 252.815 321.175 249.297C320.535 245.619 316.852 234.745 312.85 225.151C305.164 206.602 303.724 196.048 307.406 186.453C309.647 180.537 308.527 179.577 303.563 182.775C296.679 187.253 289.794 195.728 288.033 201.645L286.272 207.401L271.222 206.602C253.61 205.642 253.13 206.282 262.576 217.475C266.098 221.633 268.98 225.791 268.98 226.59C268.98 227.39 266.579 228.829 263.697 229.948C257.613 232.187 244.964 242.421 244.964 245.139C244.964 246.419 249.447 247.058 259.054 247.218C269.461 247.378 274.904 248.178 280.508 250.736C303.724 261.13 321.656 292.312 319.734 318.697C317.653 347.321 303.243 372.266 276.185 393.854C267.699 400.73 249.767 409.844 248.326 408.245C247.686 407.766 248.326 406.966 249.447 406.646C253.77 405.047 270.741 391.295 278.106 383.3C297.96 361.552 304.844 327.972 294.277 305.105C291.876 300.148 286.752 292.792 282.91 288.794C272.022 278.08 249.447 267.527 240.161 268.966L236.158 269.605L240.961 272.164C243.683 273.603 248.807 277.601 252.649 281.119L259.534 287.515L255.531 291.673C253.29 293.911 251.368 296.47 251.368 297.429C251.368 300.947 257.773 311.341 265.618 320.616C274.104 330.37 275.705 333.728 271.222 331.969C269.781 331.33 266.899 332.129 264.817 333.409C260.334 336.287 259.854 341.884 263.376 351.798C268.02 364.75 265.938 376.104 257.132 386.498C250.568 394.174 255.051 394.493 263.376 386.818C279.707 371.786 289.154 343.803 285.151 322.215C282.589 308.463 276.986 297.749 266.419 286.236L256.972 276.002L264.017 279.999C272.663 284.797 280.348 293.911 286.112 306.384C290.114 314.859 290.595 317.578 290.435 331.809C290.435 344.282 289.634 349.719 286.912 356.595C274.904 386.978 247.846 408.405 220.948 408.405C215.184 408.405 208.94 407.446 206.859 406.327L203.176 404.408L206.859 398.491C209.741 393.854 210.541 390.336 210.541 382.18C210.381 363.631 202.055 353.717 183.483 350.039C172.596 347.8 171.795 344.602 179.961 336.447C184.604 331.809 186.525 331.01 192.769 331.01C199.334 331.01 201.095 331.809 208.94 339.005C213.743 343.323 218.707 347.001 219.827 347.001C220.948 347.001 224.63 345.082 227.993 342.843C234.077 338.686 234.397 338.686 236.478 341.564C237.919 343.483 238.56 346.841 238.08 350.519C237.599 353.877 237.599 356.595 237.919 356.595C240.481 356.595 244.964 345.082 244.964 339.005C244.804 306.224 203.656 294.071 180.281 319.816C173.556 327.332 170.674 333.409 169.073 343.003C168.113 348.76 167.152 349.719 160.748 352.438C151.622 356.115 144.257 362.352 130.327 377.703C113.996 395.773 111.595 397.372 104.23 395.293C96.0643 392.734 91.5813 387.457 88.8595 377.383C86.4579 367.949 84.2164 365.87 78.9328 367.309C76.211 367.949 75.2503 367.469 75.2503 365.55C75.2503 362.032 79.0929 354.516 82.2951 351.958C87.5786 347.48 83.5759 337.246 77.4918 339.645C76.0509 340.125 74.2897 340.285 73.4892 339.645C71.5679 338.526 76.0509 327.972 80.3738 323.494L83.736 319.816H77.8121C71.2477 319.816 61.8013 323.334 56.9981 327.492C51.3944 332.449 46.431 345.562 46.431 355.316C46.431 379.782 65.3237 401.369 86.618 401.369C92.5419 401.369 94.3031 404.568 88.5393 404.727C66.9248 405.527 50.7539 395.453 40.8273 374.825C36.8246 366.669 36.1842 363.471 36.024 350.998C36.024 338.366 36.6645 335.327 40.6672 326.692C46.2709 314.539 56.5178 304.465 64.8434 302.866C68.0455 302.386 73.8094 302.227 77.652 302.706L84.5366 303.666L86.2978 296.63C87.2584 292.792 88.6994 289.114 89.66 288.634C93.0223 286.556 91.101 284.637 85.8174 284.637C82.9355 284.637 78.1323 283.837 75.0902 282.718L69.8067 280.959L57.3183 294.231C32.0214 321.096 24.4963 348.76 35.8639 373.545C38.4257 379.142 44.0294 386.498 50.7539 393.214C60.5205 402.809 62.762 404.408 72.3684 406.966C95.9042 413.203 109.994 407.286 134.01 380.741C152.262 360.593 158.826 354.996 164.43 354.996C167.152 354.996 168.273 356.115 168.913 359.314C169.554 361.872 171.155 368.588 172.596 374.665C174.517 382.98 174.677 385.858 173.236 387.297C172.115 388.417 171.315 391.295 171.315 393.694C171.315 396.092 170.674 398.171 169.874 398.171C167.632 398.171 161.868 390.336 160.748 385.858C159.147 379.942 156.905 383.3 156.905 391.775C156.905 397.692 157.866 400.57 160.908 404.248C168.753 413.682 184.764 416.401 194.851 410.004C197.893 408.086 199.654 408.086 207.659 410.164C219.027 413.203 241.442 413.203 252.329 410.324C264.657 407.126 279.067 398.811 290.274 388.577C303.403 376.584 321.495 370.027 331.102 374.025C335.105 375.624 358.64 399.77 356.399 399.77C355.919 399.77 350.795 395.613 345.191 390.336C332.863 379.302 324.217 376.264 313.33 379.142C301.802 382.18 293.637 390.176 302.122 390.176C303.563 390.176 307.566 392.574 311.249 395.613C320.215 402.809 323.577 403.768 328.54 399.93L332.383 396.892L336.866 402.329C344.711 412.243 357.039 415.601 357.039 407.766C357.039 403.768 357.359 403.768 365.045 407.766C368.567 409.525 374.491 410.964 378.654 410.964C386.819 410.964 387.139 408.725 379.294 407.126C373.69 406.007 364.724 397.532 351.436 380.901C343.59 371.147 333.824 364.591 327.099 364.591C325.338 364.591 320.695 365.71 317.012 366.989C313.33 368.268 309.647 369.388 308.847 369.388C308.207 369.388 310.288 364.111 313.65 357.555C317.012 350.998 320.695 341.084 321.816 335.487C322.936 329.891 324.217 324.774 324.698 323.974C325.018 323.334 327.419 327.332 329.821 333.089C337.826 352.118 344.551 362.032 359.281 376.584C371.289 388.417 376.732 392.415 389.861 399.131C411.956 410.484 423.484 413.203 449.101 413.362C465.912 413.362 472.317 412.563 482.403 409.685C521.79 398.491 552.851 370.827 567.58 334.208L572.864 321.256L575.586 333.568C577.027 340.285 581.029 351.158 584.392 357.555C587.754 364.111 589.995 369.388 589.195 369.388C588.554 369.388 584.872 368.268 581.19 366.989C577.507 365.71 572.544 364.591 570.302 364.591C562.937 364.591 553.171 372.106 542.123 386.178C529.315 402.169 525.152 405.687 517.787 407.126C508.981 408.725 509.782 410.964 519.068 410.964C524.512 410.964 529.795 409.844 533.638 407.766C541.003 403.768 541.163 403.768 541.163 407.766C541.163 409.525 542.123 411.444 543.404 411.923C547.087 413.362 557.013 407.766 561.336 402.009L565.499 396.732L569.982 399.93C574.945 403.768 577.507 402.968 587.594 394.653C590.636 392.255 594.799 390.176 596.72 390.176C601.683 390.176 601.363 387.937 595.919 384.099C589.835 379.782 579.428 377.223 573.024 378.343C565.019 379.942 560.376 382.66 553.171 390.176C542.764 400.89 539.722 401.209 549.008 390.336C563.898 373.066 568.061 371.147 581.51 374.185C593.198 376.903 598.161 379.782 608.408 389.216C618.655 398.491 633.865 407.126 645.873 410.324C656.44 413.203 679.015 413.203 690.063 410.324C697.267 408.405 699.509 408.405 702.871 410.164C714.719 416.241 729.449 413.682 737.294 404.248C740.496 400.41 741.297 397.692 741.297 390.815C741.297 381.061 739.376 379.622 736.654 387.297C733.131 397.212 725.286 402.329 726.567 393.694C726.887 390.975 726.247 388.417 724.806 387.297C722.724 385.539 722.885 384.099 725.446 375.624C727.207 370.187 728.488 363.791 728.488 361.233C728.488 355.476 731.69 353.877 738.255 356.595C743.859 358.994 746.741 361.712 766.914 383.62C778.282 396.092 784.046 401.209 790.29 404.088C809.503 412.883 829.676 410.004 844.566 396.412C855.453 386.338 862.018 375.944 865.54 363.311C868.102 354.356 868.102 351.638 866.501 341.724C863.459 324.454 855.133 309.103 840.563 293.911C830.797 283.677 827.435 281.279 825.193 282.078C823.432 282.718 818.789 283.677 814.626 284.157C807.261 285.116 805.18 286.556 808.542 288.634C809.503 289.114 810.944 292.792 811.904 296.63L813.665 303.666L821.511 302.706C837.521 300.787 851.291 310.702 858.175 328.771C863.139 342.044 863.779 352.278 860.737 364.591C854.173 390.176 834.479 405.687 809.663 404.727C803.899 404.568 805.66 401.369 811.424 401.369C826.154 401.369 842.485 389.056 848.409 373.545C858.175 347.321 846.007 322.375 822.471 320.136L814.146 319.337L817.508 323.174C822.151 328.292 824.553 333.249 824.553 337.406C824.553 339.965 823.912 340.604 821.511 339.805C819.91 339.325 817.348 339.325 815.907 339.965C812.545 341.244 812.545 349.08 815.907 351.958C819.109 354.516 822.952 362.032 822.952 365.55C822.952 367.469 821.991 367.949 819.269 367.309C813.986 365.87 811.744 367.949 809.343 377.223C806.621 387.617 803.739 390.815 794.773 394.333C788.048 396.892 787.728 396.892 783.405 393.374C781.004 391.455 772.037 382.66 763.552 373.705C752.184 361.552 745.94 356.275 739.536 353.397C729.609 348.92 728.488 347.8 728.488 342.203C728.328 336.287 722.564 324.614 716.8 318.537C691.984 292.472 649.876 308.943 653.718 343.163C654.038 347.161 655.639 351.638 657.08 353.077C659.482 355.476 659.642 355.156 659.642 350.039C659.642 347.001 660.603 343.163 661.724 341.564C663.645 338.845 664.125 338.845 669.889 342.843C673.411 345.082 677.094 347.001 678.375 347.001C679.656 347.001 683.338 344.442 686.38 341.404C695.026 332.769 698.228 331.01 704.953 331.01C712.157 331.01 718.241 334.528 721.444 340.764C724.806 347.48 724.326 348.28 716.16 349.559C701.43 351.638 693.425 357.555 689.262 369.228C685.74 379.142 686.22 388.417 690.703 397.212C695.026 405.847 694.546 406.646 681.737 408.565C667.167 410.804 645.232 401.529 630.663 387.138C608.248 364.75 600.563 329.571 612.41 304.625C617.374 294.391 630.983 279.36 636.907 277.921C639.629 277.121 638.508 278.88 632.264 285.116C606.647 311.341 605.366 351.478 629.222 381.381C635.466 389.216 643.631 394.813 643.631 391.295C643.631 390.016 642.511 387.937 640.91 386.818C633.385 380.421 630.342 363.311 634.826 350.998C638.348 341.404 637.868 336.287 633.224 333.249C630.983 331.809 628.101 331.01 626.82 331.65C622.497 333.249 624.258 330.05 634.025 318.377C639.309 311.981 643.631 306.704 643.631 306.544C643.631 306.384 644.272 303.826 645.232 300.947C646.513 296.15 646.193 295.031 642.671 291.513L638.668 287.515L642.351 283.517C644.432 281.279 649.555 277.281 653.878 274.562L661.724 269.445L656.92 268.966C650.836 268.326 632.904 275.042 623.778 281.279C598.321 298.868 591.597 331.809 607.127 364.271C612.891 376.424 628.421 393.534 641.07 401.369C651.317 407.766 652.758 410.484 644.112 406.966C625.059 398.971 602.644 379.462 591.917 361.233C588.554 355.636 584.071 345.082 581.67 337.726C578.308 326.692 577.667 322.375 578.308 311.021C578.948 299.668 579.909 295.83 584.872 285.596C592.557 270.085 604.405 257.292 616.093 251.536C623.938 247.698 627.14 247.058 639.148 247.058C646.994 247.058 653.238 246.419 653.238 245.619C653.238 243.061 642.19 233.786 635.626 230.908C632.104 229.309 629.222 227.39 629.222 226.59C629.222 225.791 632.104 221.633 635.626 217.475C645.072 206.282 644.592 205.642 626.98 206.602L611.93 207.401L609.208 200.525C607.767 196.847 603.444 190.771 599.602 187.253C592.077 180.377 587.914 178.778 589.995 183.415C590.796 185.014 591.597 191.091 592.077 196.847C592.557 205.962 592.077 208.84 587.594 219.234C580.389 235.705 576.386 247.698 576.386 252.175C576.386 254.094 575.746 255.853 574.945 255.853C571.903 255.853 571.583 246.898 573.985 223.712C578.308 180.537 576.066 152.553 567.741 142.958C564.698 139.28 563.898 139.121 560.055 140.88C556.053 142.639 555.092 142.319 549.008 136.722C537.16 126.168 527.393 123.769 521.47 130.166C519.548 132.245 515.385 134.963 512.183 136.402C501.456 140.88 496.333 152.553 501.296 161.668C502.897 164.706 503.057 164.546 506.58 159.589C509.782 154.792 510.902 154.312 517.627 154.472C526.753 154.472 527.714 155.431 524.512 160.388C522.59 163.267 522.27 165.345 523.391 168.224C524.832 172.062 532.197 179.097 534.758 179.097C535.399 179.097 540.042 180.856 545.165 183.095C553.811 186.933 554.131 187.413 551.73 190.131C548.207 194.129 548.368 195.248 554.612 202.444C561.977 211.239 565.499 218.435 564.859 224.351C564.378 229.149 564.218 229.149 558.134 219.234C542.123 193.169 518.908 175.1 486.086 163.107L481.443 161.348L487.207 157.35C493.771 153.033 495.052 149.355 489.608 150.794C483.524 152.393 480.322 149.355 480.322 141.679C480.322 132.724 477.76 130.486 469.114 131.925C463.19 132.884 462.71 132.724 462.71 129.206C462.71 125.049 468.634 116.094 473.758 112.416C478.881 108.898 477.76 107.299 471.516 108.738C462.07 110.817 455.986 117.053 452.944 127.607C450.382 136.562 451.823 147.915 456.146 152.553C457.907 154.472 459.508 156.55 459.508 156.87C459.508 157.35 454.865 157.67 449.101 157.67C443.337 157.51 438.694 157.19 438.694 156.87C438.694 156.391 440.295 154.472 442.056 152.393C449.741 144.397 447.18 123.929 437.413 114.815C433.41 110.977 422.203 106.499 420.602 108.098ZM384.258 144.717C386.979 146.156 389.061 147.436 389.061 147.596C389.061 147.915 384.578 147.756 378.974 147.436C370.488 146.956 367.446 147.436 360.722 150.794C346.152 158.309 336.546 173.181 332.383 195.088C329.501 210.12 327.58 211.559 329.02 197.487C331.742 171.422 343.75 150.634 360.241 144.078C366.325 141.679 379.134 141.999 384.258 144.717ZM542.283 147.116C558.134 156.231 568.541 176.699 568.221 198.286L568.061 207.081L565.659 195.248C561.336 173.021 551.89 158.15 537.48 150.794C530.756 147.436 527.714 146.956 519.228 147.436C513.624 147.756 509.141 147.915 509.141 147.596C509.141 147.436 511.063 146.156 513.624 144.877C520.989 140.72 532.837 141.679 542.283 147.116ZM471.996 167.264C497.774 172.541 515.385 182.136 535.079 201.645C547.087 213.638 549.969 217.635 557.013 232.027C577.507 274.403 573.825 319.656 546.766 357.395C531.556 378.662 505.939 396.092 479.201 403.128C461.429 407.926 435.972 407.926 418.681 403.128C395.625 396.892 380.575 388.097 364.244 371.786C339.588 347.161 328.22 320.136 328.22 286.236C328.22 239.862 352.236 200.045 393.063 178.938C419.001 165.505 444.618 161.668 471.996 167.264ZM228.153 316.458C233.917 319.656 240.161 328.611 240.161 333.249C240.161 335.807 239.2 335.008 236.478 330.21C231.675 321.415 223.67 317.738 209.741 317.897C202.055 317.897 197.092 318.857 192.449 321.256C184.604 325.253 183.003 325.413 185.885 322.055C193.73 312.621 216.305 309.582 228.153 316.458ZM704.632 316.618C709.596 319.177 715.84 324.614 713.598 324.614C713.278 324.614 709.436 323.015 705.113 321.256C695.826 317.098 680.616 316.618 671.97 320.296C668.288 321.895 664.605 325.093 662.524 328.771C660.603 332.129 658.681 333.888 658.361 332.929C657.561 330.21 663.004 321.415 667.808 317.897C676.453 311.341 693.105 310.862 704.632 316.618ZM64.5232 338.526C61.1609 349.399 62.6019 364.271 67.7253 373.066C72.6886 381.541 83.2557 391.295 90.7808 394.493C99.1063 397.851 95.7441 399.131 87.0983 395.773C77.3317 392.095 69.6466 385.059 64.363 375.144C60.6806 368.268 60.0401 364.91 60.0401 353.397C60.0401 342.843 60.6806 338.686 62.9221 335.327C66.9248 329.251 67.245 329.891 64.5232 338.526ZM836.721 338.366C841.684 350.199 838.002 370.347 828.876 382.5C825.834 386.658 820.39 391.135 815.106 393.694C802.458 400.25 797.495 399.291 809.343 392.734C828.555 382.18 838.322 363.791 834.639 344.922C833.679 340.444 832.398 335.168 831.758 333.568C830.797 331.33 830.957 330.85 832.398 331.809C833.519 332.449 835.44 335.327 836.721 338.366ZM193.89 359.154C202.696 367.469 197.572 380.102 184.924 381.061C180.761 381.381 179.961 380.581 177.559 374.185C176.118 370.187 174.357 363.791 173.716 359.953L172.596 352.917L180.761 353.717C187.005 354.356 190.207 355.636 193.89 359.154ZM724.326 359.314C722.724 368.109 717.281 382.18 715.52 382.18C712.638 382.18 702.231 377.223 700.95 375.304C699.029 372.266 699.509 364.111 701.91 361.073C705.113 356.755 712.638 353.397 719.362 353.397H725.446L724.326 359.314Z" fill="black"/>
<path d="M423.483 179.898C394.023 187.734 369.047 206.123 354.957 230.269C344.71 247.859 340.547 263.37 340.547 283.838C340.387 305.426 342.469 314.7 351.755 334.209C357.839 346.842 361.201 351.479 372.089 362.353C393.223 383.301 414.197 392.895 442.856 394.494C463.67 395.614 478.72 392.416 498.413 382.501C525.952 368.909 547.246 342.045 555.091 311.822C558.454 298.23 558.454 274.084 554.931 260.651C548.687 236.505 534.277 214.118 515.865 200.206C494.411 183.896 475.038 177.499 448.3 177.659C439.013 177.659 427.966 178.619 423.483 179.898ZM470.715 187.734C504.017 195.889 529.474 217.316 541.802 247.699C563.897 302.068 535.398 363.472 479.681 381.542C462.549 387.139 435.491 387.618 419.961 382.661C395.945 374.826 372.889 356.276 361.201 335.488C353.516 321.576 349.033 303.667 349.033 286.077C349.033 267.528 351.115 257.933 358.96 241.463C370.968 216.197 397.546 194.769 425.084 188.053C437.412 185.175 459.347 184.855 470.715 187.734Z" fill="black"/>
<path d="M392.905 248.498C392.424 249.617 392.264 254.095 392.585 258.412C393.065 265.448 393.545 266.248 397.068 266.727C404.753 267.847 405.233 269.126 404.913 295.191C404.753 320.936 404.433 322.215 397.068 323.335C393.225 323.815 393.065 324.454 393.065 333.409V343.003H417.882H442.698V333.409V323.815L437.094 323.015C429.249 321.896 428.929 317.098 436.134 310.542C439.336 307.664 442.378 305.425 443.018 305.425C443.819 305.425 446.861 308.783 449.903 312.941C455.187 319.977 455.347 320.776 454.866 332.13L454.386 343.963L479.843 343.483L505.14 343.003V333.409C505.14 323.974 505.14 323.815 500.337 323.335C490.73 322.535 488.809 321.256 480.964 311.502C469.276 296.47 464.313 289.594 464.313 288.315C464.313 287.196 476 277.441 486.407 269.606C487.528 268.806 491.211 267.687 494.413 267.207L500.337 266.248V256.653V247.059H476.321H452.305L451.824 258.572L451.344 270.245L444.459 274.883C440.777 277.441 436.774 280.639 435.653 282.079C432.131 286.236 430.69 284.957 430.69 277.601C430.69 270.085 432.451 267.687 438.695 266.727C442.538 266.248 442.698 265.608 442.698 256.653V247.059L418.202 246.579C398.509 246.259 393.705 246.579 392.905 248.498Z" fill="black"/>
<path d="M635.624 111.456C635.624 114.014 634.184 121.53 632.582 128.406C630.501 137.521 630.181 141.039 631.462 141.998C632.422 142.638 634.184 145.196 635.304 147.755C636.905 151.113 637.866 151.913 639.467 150.473C642.509 147.915 643.63 149.994 643.63 157.669C643.63 165.185 645.711 167.584 649.234 164.705C651.315 163.106 651.635 163.426 651.635 167.424C651.635 169.982 650.835 176.219 649.874 181.336C648.913 186.453 648.593 191.09 649.234 191.57C652.756 195.088 662.843 169.982 662.843 157.669C662.843 143.597 655.318 125.688 644.11 113.375C637.386 106.019 635.624 105.539 635.624 111.456Z" fill="black"/>
<path d="M301.642 128.567C274.103 137.202 254.57 158.949 254.57 181.176C254.57 191.091 257.933 199.886 261.775 199.886C263.216 199.886 264.177 198.287 264.177 195.888C264.177 191.251 266.738 190.611 268.179 194.929C268.66 196.688 270.101 198.926 271.542 199.886C273.463 201.645 273.623 199.886 272.823 186.134C272.022 173.661 272.342 169.183 274.264 164.706L276.665 159.109L276.985 172.701C277.145 180.217 278.106 189.172 279.227 192.69C281.468 200.365 285.631 201.325 286.272 194.289C286.432 191.571 287.072 186.933 287.552 183.895L288.513 178.458L291.555 182.296C294.117 185.654 294.757 185.974 296.198 183.895C296.999 182.616 297.799 178.938 297.799 175.9C297.799 167.904 301.962 149.835 305.004 143.598C306.605 140.72 310.288 135.603 313.49 132.245L319.254 126.328L313.81 126.488C310.768 126.488 305.324 127.447 301.642 128.567Z" fill="black"/>
<path d="M584.713 132.084C592.879 140.72 597.201 151.273 599.283 168.703C600.404 176.859 601.845 184.214 602.485 185.014C603.285 185.654 605.207 184.534 606.808 182.296L609.69 178.458L610.65 183.895C611.131 186.933 611.771 191.57 611.931 194.129C612.732 202.284 616.094 200.685 618.816 191.09C620.577 185.334 621.218 177.978 620.897 170.462C620.417 157.83 621.378 156.39 624.58 165.825C625.861 169.663 626.021 176.699 625.38 186.933C624.26 203.243 624.74 203.723 631.945 192.53C633.706 189.811 633.866 189.971 633.866 194.608C634.026 201.804 637.709 201.484 641.231 193.969C643.312 189.651 643.793 185.654 643.312 178.458C642.352 166.944 638.509 158.789 629.223 148.235C621.057 138.961 600.724 128.567 587.595 126.967L578.789 126.008L584.713 132.084Z" fill="black"/>
<path d="M201.896 158.31C195.492 159.11 189.408 160.389 188.607 161.188C186.686 163.107 191.81 173.661 199.815 184.215C204.458 190.451 206.539 191.891 210.542 191.891C216.146 191.891 220.149 189.652 220.149 186.774C220.309 185.654 221.269 184.855 222.39 185.174C223.671 185.494 225.752 185.174 227.033 184.695C228.954 183.895 228.954 183.256 226.393 180.377L223.351 177.019L228.474 179.738C231.356 181.177 233.918 182.296 234.558 182.296C236.64 182.296 235.038 176.06 231.356 170.783C228.154 165.986 227.834 164.866 229.755 164.067C234.398 162.308 232.317 158.79 226.233 157.67C219.348 156.551 218.387 156.711 201.896 158.31Z" fill="black"/>
<path d="M670.53 157.83C665.726 158.63 664.445 162.627 668.448 164.067C670.209 164.866 669.889 166.145 666.527 171.263C664.285 174.621 662.844 178.458 663.485 179.898C664.285 182.136 664.926 182.136 669.569 179.738L674.852 177.019L671.81 180.377C669.249 183.256 669.249 183.895 671.17 184.695C672.451 185.174 674.532 185.494 675.813 185.174C677.094 184.855 677.895 185.814 677.574 187.253C677.254 189.972 681.417 191.891 687.821 191.891C692.144 191.891 701.43 181.816 706.874 171.263C709.115 166.785 710.877 162.947 710.877 162.468C710.877 159.749 680.616 156.231 670.53 157.83Z" fill="black"/>
<path d="M215.824 194.128C202.215 197.806 190.367 208.2 182.842 223.071C179.48 229.947 175.317 247.537 176.758 248.976C178.359 250.576 195.331 238.263 195.331 235.544C195.331 234.105 196.932 231.227 198.853 229.148C201.895 225.79 202.055 224.99 200.134 223.711C196.131 221.153 210.221 209.959 221.428 206.761C231.355 203.882 232.796 202.123 226.391 200.524C219.987 198.925 224.95 196.687 235.357 196.687C243.523 196.527 243.843 196.367 241.121 194.288C237.279 191.41 226.071 191.41 215.824 194.128Z" fill="black"/>
<path d="M657.242 194.128C654.2 196.367 654.52 196.527 662.846 196.687C673.253 196.687 678.216 198.925 671.812 200.524C665.728 201.964 666.688 204.042 674.694 206.121C685.101 208.68 697.269 217.634 697.269 222.592C697.269 224.83 698.55 228.188 700.151 229.787C701.592 231.546 702.873 234.105 702.873 235.544C702.873 238.263 719.844 250.735 721.285 249.136C722.726 247.697 718.883 231.227 715.041 222.911C710.398 212.677 698.23 200.524 688.783 196.367C679.177 192.049 661.405 190.77 657.242 194.128Z" fill="black"/>
<path d="M232.958 205.162C223.992 208.68 218.548 212.357 211.183 220.193C199.335 232.346 197.734 236.663 197.734 254.573C197.734 263.048 198.215 270.564 199.015 271.203C199.656 271.843 202.698 269.445 205.9 265.767C213.105 257.292 222.551 251.695 233.438 249.456C242.564 247.377 244.005 245.618 237.441 244.019C233.759 243.06 233.598 242.58 235.52 240.501C236.801 239.222 242.084 236.663 247.368 234.585C252.491 232.666 256.974 230.107 257.294 229.308C258.095 226.909 249.289 225.31 241.123 226.429C235.039 227.229 234.719 227.069 237.601 224.83C239.362 223.391 243.045 221.792 246.087 221.312C252.971 220.033 252.811 217.954 245.767 216.515C238.882 215.236 238.722 213.477 244.966 210.279C251.851 206.761 251.21 203.083 243.845 203.243C240.483 203.243 235.68 204.202 232.958 205.162Z" fill="black"/>
<path d="M647.633 204.682C647.153 205.481 649.235 207.72 652.277 209.639C655.479 211.558 658.04 213.637 658.04 214.276C658.04 214.916 655.479 216.035 652.437 216.515C645.392 217.954 645.232 220.033 652.116 221.312C655.159 221.792 658.841 223.231 660.442 224.511C663.164 226.429 662.203 226.749 652.917 226.429C637.387 226.11 636.266 228.668 649.555 234.265C663.644 240.022 666.206 242.26 660.602 243.699C654.038 245.299 655.799 247.537 665.085 249.456C675.012 251.535 686.379 258.411 693.264 266.726C695.826 269.924 698.548 271.843 699.188 271.204C699.989 270.564 700.469 263.048 700.469 254.573C700.469 241.781 699.828 237.943 696.947 232.666C692.303 223.871 679.015 211.718 668.768 207.081C660.282 203.083 649.395 201.804 647.633 204.682Z" fill="black"/>
<path d="M104.068 215.236C104.068 216.995 102.147 223.392 99.9051 229.788C94.4615 244.659 95.9024 250.576 102.147 239.223L106.47 231.387L107.43 237.783C108.231 244.5 115.916 255.533 119.758 255.693C123.121 256.013 122.64 244.819 118.958 237.623C117.677 235.225 117.357 233.626 118.317 234.265C120.719 235.705 125.843 245.939 127.123 251.855C127.764 254.414 127.444 260.011 126.643 264.168C126.003 268.486 125.843 271.844 126.483 271.844C128.564 271.844 131.606 263.049 132.407 254.094C133.528 242.9 130.005 235.864 118.157 224.511C105.669 212.678 104.068 211.558 104.068 215.236Z" fill="black"/>
<path d="M781.804 222.752C765.473 238.423 762.751 245.938 767.074 263.208C769.796 273.922 772.358 274.082 771.077 263.368C769.796 252.974 772.037 243.86 777.641 237.303L781.484 232.666L779.082 237.463C775.72 244.499 775.079 255.853 778.121 255.853C779.082 255.853 781.964 253.454 784.526 250.576C788.208 246.578 789.169 243.86 789.329 238.583C789.329 234.905 789.809 231.867 790.61 231.867C791.25 231.867 793.332 234.745 795.413 238.263C798.775 244.339 802.137 246.578 802.137 243.06C802.137 242.261 800.376 236.344 798.295 229.948C796.053 223.551 794.132 216.835 793.812 215.076C793.332 212.358 791.41 213.637 781.804 222.752Z" fill="black"/>
<path d="M149.859 236.024C142.974 237.144 136.57 238.743 135.77 239.542C134.329 240.982 135.93 251.056 137.691 251.056C138.331 251.056 139.772 249.936 141.053 248.497C142.974 246.099 150.82 241.461 153.061 241.461C153.541 241.461 150.019 245.779 145.056 251.216C132.728 264.488 133.208 268.966 145.696 256.653C156.103 246.419 157.224 246.259 151.78 256.013C146.657 265.288 151.94 267.207 157.864 258.252C160.426 254.414 166.51 237.783 166.51 234.745C166.51 233.146 166.19 233.306 149.859 236.024Z" fill="black"/>
<path d="M731.691 234.746C731.691 239.543 738.416 256.653 741.458 260.011C748.182 267.047 752.185 263.849 746.101 256.333C739.857 248.338 742.739 246.739 749.784 254.415C758.75 264.169 762.112 266.568 762.112 263.529C762.112 262.25 758.109 256.813 753.146 251.376C743.379 240.503 743.539 238.904 753.786 246.259C757.469 248.818 760.831 251.057 761.151 251.057C762.272 251.057 763.233 241.622 762.112 240.023C761.631 239.063 756.188 237.624 750.104 236.665C743.86 235.705 737.295 234.426 735.374 233.946C733.292 233.467 731.691 233.786 731.691 234.746Z" fill="black"/>
<path d="M77.1717 249.137L63.8828 249.617L65.0036 257.133C65.4839 261.29 67.2451 266.727 68.686 269.446C74.4499 279.84 94.7835 284.797 106.151 278.72L111.275 275.842L98.3059 274.883C88.8596 274.243 83.576 272.964 79.4132 270.405C70.4472 264.808 72.6887 263.689 84.0563 267.847C94.4633 271.844 104.07 273.124 104.07 270.565C104.07 269.765 99.4266 268.326 93.8229 267.207C83.7361 265.128 76.6914 261.93 78.6127 260.011C79.5733 258.892 97.6655 262.57 103.109 264.648C105.351 265.608 105.831 265.448 105.03 264.169C103.269 261.29 96.0644 258.092 88.8596 256.653C84.3766 255.854 83.2558 255.214 84.8569 254.254C89.6601 251.536 102.789 255.534 108.873 261.45C112.075 264.489 115.117 267.047 115.758 267.047C118.159 267.047 116.558 261.29 113.196 257.293C106.792 249.617 100.387 248.178 77.1717 249.137Z" fill="black"/>
<path d="M790.771 251.855C786.127 254.413 781.324 260.81 781.324 264.647C781.324 268.325 783.406 267.526 789.33 261.609C795.093 255.533 808.222 251.375 812.865 254.093C814.787 255.053 813.826 255.692 809.183 256.492C802.618 257.771 794.933 261.289 793.492 263.688C793.012 264.487 795.574 264.168 799.416 263.048C809.343 260.17 819.75 258.731 819.75 260.49C819.75 262.409 808.703 266.726 800.537 268.005C793.332 269.125 791.891 271.843 798.616 271.843C802.458 271.683 813.025 268.485 821.831 264.647C823.432 264.008 824.553 264.168 824.553 265.127C824.553 266.086 820.871 268.645 816.228 270.884C809.823 274.082 805.5 275.041 797.495 275.041C787.729 275.041 787.248 275.201 789.81 277.76C791.571 279.519 795.894 280.638 802.458 281.118C820.871 282.077 832.559 272.483 832.559 256.172V249.456H813.826C800.697 249.616 793.652 250.256 790.771 251.855Z" fill="black"/>
<path d="M146.018 267.208C131.768 269.926 132.569 272.645 147.619 272.645C157.225 272.645 160.267 273.284 164.59 276.322C170.834 280.96 171.315 283.998 165.231 280.8C159.467 277.762 149.7 276.003 146.338 277.282C141.695 279.041 148.259 284.318 156.745 285.597C166.992 287.036 168.433 288.475 160.908 289.435C155.304 290.074 154.503 290.874 154.023 294.552C153.543 298.869 153.863 299.029 160.107 299.029C166.031 299.029 182.522 292.473 182.522 290.074C182.522 289.435 178.68 284.797 174.197 279.361C166.832 271.045 158.186 265.129 154.183 265.609C153.543 265.768 149.86 266.408 146.018 267.208Z" fill="black"/>
<path d="M738.895 267.207C733.932 268.647 715.68 285.597 715.68 288.955C715.68 290.074 719.362 292.793 723.845 295.031C733.452 299.989 743.378 299.989 744.179 295.191C744.979 291.513 741.937 289.435 736.013 289.435C728.969 289.435 732.491 286.716 741.137 285.437C749.943 284.318 756.667 279.201 751.864 277.282C748.502 276.002 738.735 277.921 732.811 280.96C726.727 283.998 727.528 280.64 733.932 276.002C737.454 273.284 740.656 272.644 750.263 272.644C761.47 272.644 764.192 271.685 760.51 269.446C757.308 267.527 743.538 266.088 738.895 267.207Z" fill="black"/>
<path d="M129.686 279.04C129.686 279.36 131.928 282.398 134.81 285.596C139.133 290.554 140.093 292.952 140.574 301.427C141.534 315.979 138.492 320.296 137.051 306.544C135.931 297.27 132.728 288.954 130.807 291.033C130.487 291.513 130.967 298.549 131.768 306.704C132.568 314.859 132.889 322.055 132.248 322.535C130.167 324.614 128.085 319.177 128.085 311.821C128.085 301.427 125.844 298.869 122.642 305.105C118.319 313.26 119.279 319.177 126.164 326.213C129.366 329.731 134.97 333.729 138.332 335.168L144.576 337.566L143.616 330.69C142.975 326.053 143.616 321.096 145.697 315.019C151.141 299.668 149.219 288.954 139.933 281.599C136.091 278.56 129.686 276.961 129.686 279.04Z" fill="black"/>
<path d="M755.545 284.476C749.941 290.073 749.301 291.512 749.301 298.708C749.301 303.026 750.422 309.262 751.862 312.62C753.303 316.298 754.104 322.215 753.944 327.652C753.624 335.647 753.784 336.606 756.666 336.127C760.829 335.327 768.674 330.37 772.997 325.733C777.96 320.456 779.081 311.981 775.879 305.584C772.516 299.188 770.115 300.627 770.115 309.102C770.115 317.417 768.674 323.014 766.432 323.014C764.671 323.014 765.792 298.708 767.873 293.591C768.674 291.352 768.354 290.873 766.752 291.352C763.71 292.312 760.668 301.427 760.508 311.021C760.188 322.534 757.626 315.499 757.466 302.866C757.306 294.391 757.947 292.152 762.109 286.555C767.713 278.88 767.873 278.24 764.351 278.24C762.91 278.24 758.907 280.958 755.545 284.476Z" fill="black"/>
<path d="M101.83 284.637C89.1816 292.792 84.3784 310.542 90.6225 326.213C93.6646 333.889 95.2657 334.368 96.7066 327.652C97.6673 323.015 99.5886 320.616 112.557 308.783C120.242 302.067 123.605 295.351 122.964 288.955C122.324 282.558 119.602 282.878 118.321 289.434C117.36 294.072 107.594 306.225 105.993 304.785C105.673 304.306 107.274 301.267 109.515 297.909C117.04 286.876 114.158 284.317 104.872 293.752C101.19 297.59 98.3077 302.707 96.7066 308.463C95.4258 313.42 93.9848 318.058 93.8247 319.017C93.5045 319.817 92.7039 317.898 92.0635 314.54C90.3023 305.745 94.6252 295.671 103.591 287.835C107.594 284.317 110.636 281.119 110.156 280.639C109.835 280.16 105.993 282.078 101.83 284.637Z" fill="black"/>
<path d="M794.772 288.314C804.379 297.749 808.061 306.544 805.98 315.499C804.859 320.456 804.699 320.136 802.137 310.381C799.896 302.706 797.654 298.708 792.691 293.751C789.169 290.073 785.646 287.675 785.006 288.474C784.365 289.114 785.806 293.111 788.208 297.429C791.09 302.386 791.891 305.105 790.45 304.465C786.927 303.186 780.843 294.231 779.722 288.794C778.442 282.238 775.88 282.398 775.239 289.114C774.439 296.31 780.843 306.544 789.969 313.1C797.494 318.537 800.056 322.055 802.137 329.251L803.098 333.408L805.98 328.931C807.741 326.532 809.182 320.296 809.662 314.379C810.783 300.627 806.46 291.033 796.053 284.476C785.326 277.6 784.846 278.72 794.772 288.314Z" fill="black"/>
<path d="M214.224 434.471L193.73 435.111V458.138V481.324H215.345H236.959V477.327C236.959 473.489 236.799 473.489 220.629 473.009L204.137 472.529V466.933V461.336H215.025C225.432 461.336 225.752 461.176 225.752 457.338C225.752 453.5 225.432 453.34 215.025 453.34H204.137L203.657 448.063L203.177 442.946H219.188H235.358V438.149C235.358 435.431 235.198 433.512 235.038 433.672C234.718 433.832 225.432 434.311 214.224 434.471Z" fill="black"/>
<path d="M275.065 434.79C262.096 438.947 256.172 446.463 256.172 458.456C256.172 472.688 266.099 481.643 281.629 481.643C288.674 481.643 305.805 475.886 305.805 473.487C305.805 473.008 304.684 471.089 303.404 469.49C301.162 466.611 300.842 466.611 298.12 469.17C293.317 473.327 285.151 475.086 278.427 473.327C265.778 469.969 261.616 456.377 270.421 447.582C274.424 443.585 276.345 442.945 283.87 442.945C290.435 442.945 293.637 443.744 296.999 446.463C301.322 449.821 301.482 449.821 303.564 446.943C306.766 442.625 306.606 442.305 298.6 438.467C290.115 434.31 280.989 433.031 275.065 434.79Z" fill="black"/>
<path d="M341.83 435.75C333.825 438.629 327.101 446.304 325.82 454.459C324.379 462.615 330.143 474.448 337.508 478.765C344.712 482.763 358.161 482.763 365.206 478.765C373.692 473.808 377.054 467.892 377.054 458.137C377.054 451.901 376.093 448.383 373.692 445.025C366.487 435.43 353.198 431.593 341.83 435.75ZM360.403 444.545C362.004 445.505 364.566 448.543 366.007 451.261C372.571 463.894 360.403 477.806 346.794 473.329C330.303 467.892 333.665 442.946 350.957 442.946C354.479 442.946 358.642 443.746 360.403 444.545Z" fill="black"/>
<path d="M571.263 434.631L550.77 435.111V458.138V481.324H572.384H593.999V477.327C593.999 473.489 593.838 473.489 577.668 473.009L561.177 472.529V466.933V461.336H572.064C582.471 461.336 582.791 461.176 582.791 457.338C582.791 453.5 582.471 453.34 572.064 453.34H561.177V448.543V443.746L577.187 442.946C591.117 442.307 593.198 441.827 593.678 439.109C593.999 437.509 593.678 435.75 592.878 435.111C592.237 434.631 582.471 434.311 571.263 434.631Z" fill="black"/>
<path d="M698.068 434.79C684.459 439.108 678.375 446.464 678.375 458.297C678.375 477.486 698.869 487.24 720.163 478.125C724.806 476.206 728.489 473.968 728.489 473.328C728.489 472.689 727.208 471.089 725.447 469.49C722.885 467.092 722.244 467.092 720.483 469.33C719.362 470.61 715.68 472.529 712.158 473.328C694.386 478.125 680.777 459.896 693.105 447.583C697.108 443.585 699.029 442.946 706.554 442.946C712.958 442.946 716.32 443.905 719.523 446.304C723.685 449.662 724.006 449.662 726.087 446.783C729.289 442.466 729.289 442.306 721.284 438.468C712.798 434.471 703.672 432.871 698.068 434.79Z" fill="black"/>
<path d="M769.795 434.631L749.301 435.111V458.138V481.324H770.915H792.53V477.327C792.53 473.489 792.37 473.489 776.199 473.009L759.708 472.529V466.933V461.336H770.595C781.002 461.336 781.322 461.176 781.322 457.338C781.322 453.5 781.002 453.34 770.595 453.34H759.708V448.543V443.746L775.718 442.946C789.648 442.307 791.729 441.827 792.21 439.109C792.53 437.509 792.21 435.75 791.409 435.111C790.769 434.631 781.002 434.311 769.795 434.631Z" fill="black"/>
<path d="M401.55 436.07C398.988 436.71 398.668 439.268 398.668 459.097V481.324H403.471H408.274V467.732C408.274 460.216 408.755 454.14 409.555 454.14C410.196 454.14 413.558 459.577 416.92 466.133C420.443 472.689 423.805 478.126 424.605 478.126C425.246 478.126 428.928 472.689 432.611 466.133C436.453 459.577 439.976 454.14 440.776 454.14C441.417 454.14 441.897 460.216 441.897 467.732V481.324H447.18H452.304V458.937V436.55L445.9 436.71C439.655 436.71 439.335 436.87 433.571 448.223C430.369 454.62 426.847 459.737 425.726 459.737C424.285 459.737 412.277 439.588 412.277 437.03C412.277 436.23 403.791 435.431 401.55 436.07Z" fill="black"/>
<path d="M68.0469 458.937V481.324H73.3304C78.4539 481.324 78.4539 481.324 78.4539 473.649C78.4539 467.732 79.2544 465.014 81.8161 462.775C85.0183 459.897 85.1784 459.897 90.4619 466.133C93.5039 469.651 96.8662 474.448 97.9869 476.847C99.7481 480.685 101.029 481.324 106.793 481.324C110.635 481.324 113.677 480.844 113.677 480.045C113.517 479.405 108.874 473.489 103.27 466.933L92.8635 454.939L97.1864 450.942C99.7481 448.703 104.551 444.545 108.074 441.667L114.478 436.55H107.113C100.709 436.55 98.9476 437.35 92.063 443.906C79.2544 455.739 78.4539 455.899 78.4539 445.345V436.55H73.3304H68.0469V458.937Z" fill="black"/>
<path d="M474.719 458.937V481.324H479.522H484.325L483.685 467.732C483.365 459.097 483.845 454.14 484.806 454.14C485.766 454.14 489.449 459.577 493.131 466.133C496.814 472.689 500.336 478.126 500.976 478.126C501.617 478.126 505.299 472.689 508.982 466.133C512.824 459.577 516.667 454.14 517.467 454.14C518.428 454.14 518.908 459.417 518.588 467.732L517.948 481.324H523.551H529.155V458.937V436.55H521.31C516.987 436.55 513.945 437.03 514.425 437.509C515.386 438.469 505.78 457.498 502.577 461.016C501.297 462.615 489.929 443.106 489.929 439.268C489.929 437.03 488.328 436.55 482.404 436.55H474.719V458.937Z" fill="black"/>
<path d="M614.492 459.095L614.972 481.482L619.936 481.003C624.899 480.523 624.899 480.363 625.059 471.728C625.219 463.093 625.219 462.933 630.343 462.453C636.107 461.814 640.429 465.652 644.912 475.246C647.474 480.843 648.115 481.323 654.519 481.323H661.403L654.679 472.528C648.435 464.372 647.634 460.534 652.277 460.534C655.8 460.534 659.642 454.938 659.642 449.501C659.642 446.143 658.201 442.945 655.64 440.546C651.957 436.708 650.836 436.548 632.904 436.548H614.012L614.492 459.095ZM646.994 444.544C651.477 446.942 650.836 452.379 645.873 454.138C641.39 455.897 630.823 456.217 626.98 454.778C625.379 454.138 624.419 451.899 624.419 448.382V442.945H634.185C639.469 442.945 645.233 443.744 646.994 444.544Z" fill="black"/>
<path d="M142.496 461.015C142.496 464.374 143.137 464.533 152.903 464.693C162.67 464.693 163.31 464.374 163.31 461.015C163.31 457.498 162.67 457.338 152.903 457.338C143.137 457.338 142.496 457.498 142.496 461.015Z" fill="black"/>
<path d="M398.826 493.637C396.745 494.117 385.377 503.871 373.209 515.544C348.072 540.01 338.786 545.607 323.416 545.927C312.208 546.087 306.925 542.889 301.161 532.495C293.476 518.583 297.158 505.15 310.127 500.673C316.051 498.594 317.011 498.594 321.014 501.153C325.657 504.191 325.817 507.549 321.654 517.623C317.332 528.337 326.298 537.772 335.264 532.015C344.07 526.258 340.867 508.349 329.5 500.193C321.975 494.916 309.646 494.437 302.602 499.234C299.56 501.313 296.197 504.671 295.237 506.59C292.355 512.346 292.035 512.346 282.268 506.27C264.016 495.076 247.205 492.038 228.472 496.355C185.403 506.43 170.353 539.371 196.931 565.276C200.453 568.634 203.655 571.032 204.136 570.553C204.616 570.073 203.495 566.555 201.734 562.717C198.692 555.841 197.571 546.407 199.493 541.609C200.133 539.69 201.254 539.531 204.936 540.97C212.141 543.688 217.264 540.49 219.506 532.015C220.467 528.177 222.868 523.06 224.79 520.502C228.312 516.184 228.472 516.184 232.635 518.743C236.637 521.461 237.118 521.461 249.446 515.864C264.176 509.148 273.942 508.508 284.67 513.306C289.953 515.704 291.394 517.143 291.394 520.502C291.394 524.019 290.754 524.499 285.31 524.499C274.583 524.499 270.58 532.974 276.824 543.049C280.027 548.166 293.155 557.76 302.922 561.758C308.045 563.996 308.846 564.956 309.326 570.393C309.807 575.67 310.607 576.789 315.891 579.508C328.539 585.584 347.112 577.749 357.999 561.918C361.361 557.12 364.243 553.283 364.563 553.283C364.883 553.283 366.965 554.402 369.046 555.841C375.771 560.159 379.773 556.001 391.301 532.015C397.065 520.502 401.388 510.747 401.068 510.427C400.748 509.948 391.782 518.103 381.054 528.337C350.794 557.44 338.626 563.837 320.694 559.839C314.129 558.24 310.287 556.161 304.843 551.044C301.001 547.366 297.798 543.049 297.798 541.449C297.798 539.371 298.759 539.85 301.801 543.528C308.846 551.843 316.371 555.521 326.137 555.202C342.308 554.722 355.277 546.726 379.773 522.261C388.9 513.146 400.107 503.391 404.75 500.513C409.393 497.795 413.076 494.756 413.076 493.957C413.076 492.518 405.871 492.358 398.826 493.637ZM250.567 502.112C251.207 503.072 249.126 503.711 245.443 503.711C237.598 503.711 222.708 507.549 214.543 511.707C205.577 516.344 197.251 525.459 194.049 534.413C190.847 543.528 188.285 544.488 189.886 536.013C192.128 523.38 200.613 513.466 214.062 507.549C227.191 501.632 248.325 498.594 250.567 502.112Z" fill="black"/>
<path d="M418.842 497.315C415.8 500.033 412.117 505.47 410.516 509.468C407.954 516.184 407.954 517.463 410.676 533.454C413.558 551.364 413.078 560.319 408.755 571.352C407.314 574.71 406.673 577.908 407.154 578.388C408.915 579.987 425.566 566.395 432.291 557.92C435.813 553.443 439.656 546.087 440.936 541.609C446.06 523.54 445.58 493.317 440.296 493.317C438.375 493.317 438.055 495.556 438.375 505.31C439.335 528.017 432.611 551.524 422.364 560.798C419.162 563.677 419.162 563.677 421.884 557.28C430.209 538.731 432.931 527.538 432.451 513.466C432.291 508.828 431.97 508.349 429.729 510.267C428.288 511.387 424.926 516.664 422.204 521.941L417.08 531.695L416.6 525.779C415.8 517.303 419.002 507.709 424.285 501.473C432.771 491.878 428.608 488.84 418.842 497.315Z" fill="black"/>
<path d="M455.667 493.956C451.344 500.992 454.065 537.771 459.829 548.964C465.433 559.998 488.008 581.266 490.89 578.387C491.531 577.907 490.89 574.709 489.449 571.351C485.126 560.637 484.646 551.363 487.368 534.253C489.449 521.78 489.609 516.503 488.328 511.546C486.407 504.67 478.722 494.755 473.759 493.316C467.835 491.397 467.354 494.276 472.958 500.672C479.042 507.708 482.404 517.942 481.604 526.257L481.124 531.694L476 521.94C473.278 516.663 469.916 511.386 468.475 510.266C466.394 508.508 465.913 509.147 464.953 514.104C463.672 521.14 468.155 539.849 474.399 554.081L478.722 563.676L473.919 558.079C463.352 545.926 459.029 531.055 459.829 507.868C459.989 498.433 459.509 493.316 458.388 492.996C457.428 492.677 456.147 492.996 455.667 493.956Z" fill="black"/>
<path d="M485.125 493.956C485.125 494.756 488.647 497.634 492.97 500.193C497.293 502.911 509.301 513.625 519.868 524.019C540.362 544.327 551.89 552.003 566.78 554.881C573.824 556.16 576.226 556.001 582.951 553.122C587.273 551.203 593.037 547.206 595.599 544.167C601.523 537.451 602.163 541.449 596.239 548.485C589.675 556.16 580.389 560.318 569.181 560.478C553.971 560.478 544.845 555.041 519.228 530.415C499.375 511.226 491.689 506.429 498.894 517.303C500.335 519.542 505.299 528.816 509.782 537.771C519.228 556.48 522.11 559.199 529.155 555.521C533.317 553.282 534.118 553.282 535.559 555.521C547.087 572.631 553.171 577.588 566.139 580.466C579.268 583.505 589.195 578.548 589.195 569.273C589.195 565.115 590.316 563.996 597.36 560.478C607.767 555.521 618.655 547.206 621.857 541.769C627.621 532.174 623.298 524.499 611.93 524.499C608.248 524.499 605.205 523.699 605.205 522.74C605.205 518.902 608.728 515.064 614.812 512.666C625.059 508.668 633.865 509.467 648.434 515.864C661.083 521.301 661.563 521.46 665.566 518.742C669.569 516.183 669.889 516.183 672.611 519.861C674.212 521.94 676.293 525.778 677.254 528.496C681.096 538.73 683.018 541.289 687.18 541.769C689.582 542.089 692.944 541.609 694.705 540.649C697.107 539.37 697.908 539.53 698.708 541.449C700.629 546.246 699.669 554.721 696.467 562.237C694.705 566.395 693.585 570.072 694.065 570.552C695.506 572.151 704.632 562.397 709.435 554.082C720.803 534.413 711.357 513.465 686.06 502.112C661.403 490.918 639.949 491.877 617.694 505.31C611.77 508.828 606.646 511.706 606.166 511.706C605.686 511.706 604.085 509.467 602.804 506.909C597.68 496.835 584.392 492.997 572.383 497.954C560.055 503.231 553.171 524.179 561.816 531.055C566.78 535.053 570.782 534.893 574.785 530.575C578.628 526.418 578.788 521.62 575.426 514.265C570.142 503.391 576.546 496.675 588.554 500.513C601.363 504.83 604.565 520.821 595.599 534.413C589.355 543.848 581.67 547.685 571.743 546.246C557.814 544.327 548.047 537.931 525.152 515.704C508.821 499.873 502.256 494.436 498.094 493.636C490.569 492.037 485.125 492.197 485.125 493.956ZM665.566 502.112C690.222 506.109 707.994 521.46 707.514 538.411C707.354 543.688 707.194 544.007 706.233 540.489C699.829 519.542 682.217 506.589 656.92 504.19C651.477 503.711 647.314 502.591 647.794 501.952C648.915 500.033 653.398 500.193 665.566 502.112Z" fill="black"/>
<path d="M245.443 525.938C227.031 534.413 223.028 565.915 239.199 575.829C241.921 577.428 246.724 578.867 249.766 578.867L255.37 578.707L249.446 575.509C242.722 572.151 240.16 568.313 240.16 562.237C240.16 558.399 240.48 558.239 244.163 559.998C250.887 563.036 253.609 558.879 253.609 545.127C253.769 534.253 254.089 533.453 259.053 529.456C261.774 527.057 264.176 524.499 264.176 524.019C264.176 521.78 251.848 523.059 245.443 525.938Z" fill="black"/>
<path d="M634.023 524.179C634.023 525.138 635.464 526.737 637.386 527.697C642.189 530.415 645.231 538.73 644.11 546.566C642.829 556 646.832 561.917 653.396 560.478C657.559 559.518 658.04 559.838 658.04 563.196C658.04 568.153 655.478 571.352 648.433 575.509L642.829 578.867H648.113C655.958 578.867 662.362 574.869 666.205 567.354C672.93 554.081 667.006 533.134 654.837 526.897C648.433 523.539 634.023 521.78 634.023 524.179Z" fill="black"/>
<path d="M401.55 546.566C399.148 550.084 394.665 555.041 391.463 557.6C388.421 559.999 385.859 562.557 385.859 563.197C385.859 565.755 398.028 564.316 403.151 561.278C408.435 557.92 409.235 555.201 406.833 544.647L405.873 539.85L401.55 546.566Z" fill="black"/>
<path d="M490.728 548.324C489.607 556.639 489.767 557.279 493.77 560.797C496.972 563.515 500.174 564.475 505.458 564.475H512.823L504.977 555.999C500.655 551.522 496.011 545.925 494.571 543.687L492.009 539.689L490.728 548.324Z" fill="black"/>
<path d="M444.298 550.404C443.818 552.483 443.338 558.08 443.017 562.877L442.537 571.672L440.296 566.395C437.734 560.639 436.773 560.159 433.731 563.837C431.97 566.075 432.29 567.674 435.973 574.87C438.534 579.508 442.537 585.264 445.099 587.663L449.582 591.98L455.826 583.985C464.312 573.431 467.033 566.875 464.312 563.677C461.43 560.159 460.469 560.639 457.907 566.395L455.666 571.672L455.186 562.877C454.385 549.125 453.584 546.886 449.101 546.886C446.38 546.886 444.939 548.006 444.298 550.404Z" fill="black"/>
<path d="M465.591 609.569C458.707 613.567 458.707 613.567 462.069 618.045C464.311 620.923 464.631 621.083 466.072 618.524C466.872 617.085 470.074 615.006 473.116 614.047C479.521 611.968 485.124 614.047 485.124 618.684C485.124 622.202 481.762 625.08 471.035 630.997C462.87 635.315 457.906 641.231 457.906 646.828C457.906 648.907 460.788 649.227 477.119 649.227H496.332V645.229C496.332 641.231 496.172 641.231 483.363 641.231C476.319 641.231 470.875 640.592 471.355 639.792C471.836 638.992 476.319 636.434 481.122 634.035C492.169 628.758 496.332 621.882 493.29 614.367C489.608 605.572 476.319 603.333 465.591 609.569Z" fill="black"/>
<path d="M511.062 609.249C499.855 616.125 498.414 632.436 508.34 642.35C512.983 646.987 514.584 647.627 522.59 647.627C530.115 647.627 532.356 646.987 536.359 643.309C545.966 634.674 545.805 618.204 536.199 610.209C529.955 604.932 518.907 604.612 511.062 609.249ZM529.955 615.645C536.039 621.722 536.039 631.956 529.955 638.032C521.309 646.668 508.18 635.794 511.382 622.841C512.823 617.244 517.947 612.447 522.75 612.447C524.991 612.447 528.194 613.886 529.955 615.645Z" fill="black"/>
<path d="M557.013 608.769C551.089 612.447 547.566 619.003 547.566 626.839C547.566 639.791 555.412 647.627 568.38 647.627C581.829 647.627 590.315 637.713 588.714 623.801C588.074 618.044 586.633 615.485 582.15 611.328C577.346 606.85 575.265 606.051 568.861 606.051C564.538 606.051 559.254 607.33 557.013 608.769ZM575.585 616.445C578.627 619.323 579.588 622.042 579.588 626.839C579.588 631.636 578.627 634.355 575.585 637.233C570.782 642.19 566.619 642.35 561.015 637.553C557.653 634.515 556.693 632.436 556.693 626.839C556.693 621.242 557.653 619.163 561.015 616.125C566.619 611.328 570.782 611.488 575.585 616.445Z" fill="black"/>
<path d="M614.814 607.97C614.814 609.089 610.171 615.485 604.407 622.042C598.323 629.078 594 635.474 594 637.553C594 641.071 594.64 641.231 606.809 641.231C618.496 641.231 619.617 641.55 619.617 644.429C619.617 646.987 620.738 647.627 624.42 647.627C628.103 647.627 629.224 646.987 629.224 644.429C629.224 642.67 630.344 641.231 631.625 641.231C633.066 641.231 634.027 639.791 634.027 637.233C634.027 634.674 633.066 633.235 631.625 633.235C629.704 633.235 629.224 630.677 629.224 619.643V606.051H622.019C617.376 606.051 614.814 606.691 614.814 607.97ZM619.137 632.756C618.657 633.075 615.294 633.235 611.612 632.915L604.887 632.436L611.772 624.6L618.817 616.605L619.297 624.28C619.617 628.598 619.457 632.276 619.137 632.756Z" fill="black"/>
<path d="M266.74 615.806C262.577 619.164 261.296 625.401 263.858 629.718C265.459 632.117 274.425 634.835 280.669 634.835C285.633 634.835 288.354 639.153 284.832 641.391C281.47 643.47 273.464 643.15 268.661 640.592C264.658 638.513 264.178 638.513 263.378 641.551C261.937 645.709 262.097 645.709 272.664 647.788C280.349 649.387 282.27 649.227 287.714 646.668C292.837 644.11 293.798 642.83 294.278 637.873C294.919 630.677 292.677 628.759 281.15 626.84C269.782 625.081 268.181 624.121 270.903 620.923C272.824 618.524 280.669 618.684 289.475 621.403C292.197 622.202 292.997 621.723 292.997 619.324C292.997 617.085 291.236 615.646 286.753 614.367C277.787 611.648 271.543 611.968 266.74 615.806Z" fill="black"/>
<path d="M363.922 615.647C350.633 623.642 352.714 641.232 367.604 646.989C374.649 649.707 375.29 649.707 383.615 646.829C391.621 644.11 394.342 641.072 390.82 638.993C390.019 638.513 386.657 639.153 383.455 640.592C369.206 646.509 357.037 633.077 367.444 622.842C371.927 618.205 378.011 617.725 384.896 621.243C389.539 623.802 392.261 623.162 392.261 619.804C392.261 616.926 381.854 612.448 374.969 612.448C371.767 612.448 366.804 613.888 363.922 615.647Z" fill="black"/>
<path d="M413.558 613.726L398.668 614.206V630.837V647.627H414.679C429.569 647.627 430.689 647.467 430.689 644.429C430.689 641.55 429.569 641.231 418.681 641.231C406.994 641.231 406.673 641.071 406.673 637.233C406.673 632.915 410.996 630.837 418.041 631.956C420.603 632.276 422.044 631.476 422.364 629.717C422.844 627.479 421.403 626.999 415.159 626.519C408.755 626.039 407.474 625.56 407.474 622.841C407.474 619.963 408.595 619.643 418.681 619.483C427.327 619.323 430.049 618.684 430.369 616.765C431.01 613.407 430.209 613.247 413.558 613.726Z" fill="black"/>
<path d="M299.402 630.997V647.787L303.565 647.307C307.728 646.828 307.728 646.828 307.888 630.357L308.208 614.047H303.885H299.402V630.997Z" fill="black"/>
<path d="M313.809 630.837C313.809 647.627 313.809 647.627 317.811 647.627C321.494 647.627 321.654 647.147 322.134 636.753L322.614 626.039L333.502 636.753C339.426 642.83 345.83 647.627 347.431 647.627C350.473 647.627 350.633 646.348 350.633 630.837C350.633 614.046 350.633 614.046 346.631 614.046C342.948 614.046 342.788 614.686 342.308 623.961L341.827 634.035L333.502 626.199C328.859 621.882 325.016 617.404 325.016 616.285C325.016 614.846 323.095 614.046 319.412 614.046H313.809V630.837Z" fill="black"/>
</svg>
